<svg width="116" height="50" xmlns="http://www.w3.org/2000/svg">
    <g fill="#FFF" fill-rule="nonzero">
        <path d="M84.41 18.282c0-.051-.025-.077-.025-.128v-.026c0-.025-.026-.077-.026-.102-.256-.77-.641-1.231-.846-1.436-1.308-2.205-3.385-5.975-3.539-7-.256-1.795-1.18-3.436-1.23-3.513-.026-.026-.026-.051-.052-.077-.025-.051-.051-.077-.077-.103l-.05-.05c-.027-.026-.052-.078-.078-.103-.051-.077-.102-.18-.18-.257 0-.025-.025-.025-.025-.025-.026-.052-.051-.077-.077-.103 0 0-.051-.077-.128-.18l.077-.102c.82-1.026 1.025-1.436 1.256-2.564.077-.36.282-1.513-.154-2.051a.767.767 0 0 0-.59-.283c-.23 0-.487 0-2.64 2.206.077-.36.282-1.308 0-1.641a.62.62 0 0 0-.488-.257c-.256 0-.333 0-2.282 1.692-.692.59-1.487 1.308-1.974 1.744h-.026a22.52 22.52 0 0 0-3.282.641c.488-.692.667-1.128.847-2.051.076-.36.282-1.513-.154-2.051a.767.767 0 0 0-.59-.283c-.23 0-.487 0-2.641 2.206.077-.36.256-1.308 0-1.641a.62.62 0 0 0-.487-.257c-.257 0-.334 0-2.282 1.692-.693.59-1.488 1.308-1.975 1.744h-.025a22.52 22.52 0 0 0-3.282.641c.487-.692.666-1.128.846-2.051.077-.36.282-1.513-.154-2.051a.767.767 0 0 0-.59-.283c-.23 0-.487 0-2.64 2.206.076-.36.281-1.308 0-1.641a.62.62 0 0 0-.488-.257c-.256 0-.333 0-2.282 1.692a58.013 58.013 0 0 0-1.974 1.744h-.026c-2.23.256-4.385.872-6.385 1.77-3.128 1.435-9.718 6.102-18.846 14.974-.41.384-.461 1.077-.128 1.538.128.205.667.77 1.77.23.794-.281 7.871-2.358 13.05-2.358 3.18 0 3.847.692 4 .897.154.231.488.795 1.154.795h.077c.718-.025.949-.743 1.026-1 0-.025.026-.077.026-.077 1.153-2.384 1.384-2.615 1.769-3.025.077-.077.154-.154.23-.257.052-.077.231-.18.41-.256.283-.026 1.924.102 6.693 3.41.026.026.077.051.128.077.308.154.462.256.59.359.051.026.077.051.128.103v.23c0 1.205.82 1.667 1.103 1.82.59.334 1.615.462 1.897.488.103 0 .205.026.308.026.513 0 .923-.052 1.308-.154h.025c1.59-.487 1.82-1 1.898-1.18a39.39 39.39 0 0 0 .846-2.743c.051-.18.051-.334.077-.487a40.5 40.5 0 0 1 2.282 1.487c.025.025.077.051.128.077.308.154.462.256.59.359.051.025.077.05.128.102v.231c0 1.205.82 1.667 1.103 1.82.59.334 1.615.462 1.897.488.103 0 .205.025.308.025.512 0 .923-.051 1.307-.154H71c1.59-.487 1.82-1 1.897-1.179a39.39 39.39 0 0 0 .847-2.744c.05-.18.05-.333.077-.487a40.5 40.5 0 0 1 2.282 1.487.56.56 0 0 0 .128.077c.307.154.461.257.59.36a.45.45 0 0 1 .128.102v.23c0 1.206.82 1.667 1.102 1.821.59.333 1.616.462 1.898.487.102 0 .205.026.307.026.513 0 .923-.051 1.308-.154h.026c1.59-.487 1.82-1 1.897-1.18a39.39 39.39 0 0 0 .846-2.743c.129-.615.129-.974.077-1.359zm-22.872.82c-.153.667-.538 1.872-.692 2.308-.18.103-.564.257-.897.385-.231.077-.513.102-.846.102h-.129c-.461-.05-1.077-.18-1.282-.282-.23-.128-.256-.18-.256-.384 0-.36 0-1.077-.718-1.59-.026-.026-.051-.051-.103-.077-.153-.128-.384-.282-.794-.487-.975-.667-4.18-2.692-4.565-2.872-.077-.026-1.794-.974-3.05-.897 0 0-1.078.333-1.616.948a1.659 1.659 0 0 0-.205.231c-.488.539-.795.898-1.847 3.077-.871-.795-2.487-1.154-4.948-1.154-4.205 0-9.36 1.231-12.026 2 8.205-7.769 14.103-12.025 16.82-13.256 1.154-.539 2.437-1.103 3.719-1.487a17.07 17.07 0 0 1 2.205-.385.684.684 0 0 0 .359-.18c.436-.435 1.974-1.769 3.025-2.666l-.23 1.64c-.026.257.102.514.333.616a.63.63 0 0 0 .692-.128c.949-1 2.026-2.102 2.692-2.718-.025.128-.025.282-.076.436-.18.897-.282 1.154-1.026 2.077l-.18.23a.46.46 0 0 0-.128.18c-.307.487-.205 1.052.257 1.616.05.077.077.128.128.205a.194.194 0 0 1 .051.102l.026.052c.025.025.051.077.102.128.052.077.231.41.436.872.154.512.282 1.282.36 2.102.179 1.718 3.23 6.77 3.82 7.77.051.076.077.128.154.205 0 0 .282.256.435.769v.051c.052.051.077.18 0 .462zm10.59 0c-.154.667-.538 1.872-.692 2.308-.18.103-.564.257-.898.385-.23.077-.512.102-.846.102h-.128c-.461-.05-1.077-.18-1.282-.282-.23-.128-.256-.18-.256-.384 0-.36 0-1.077-.718-1.59a.354.354 0 0 0-.103-.077c-.154-.128-.384-.282-.795-.487-.974-.667-2.795-1.82-3.795-2.36h-.025a.584.584 0 0 0-.282-.076c-1.436-2.333-3.436-6-3.539-6.974-.154-1.564-.923-3-1.18-3.436.873-.257 1.796-.693 2.719-.898l.564-.077a.684.684 0 0 0 .359-.18c.436-.435 1.974-1.768 3.025-2.666l-.23 1.641c-.026.257.102.513.333.616a.63.63 0 0 0 .692-.129c.949-1 2.026-2.102 2.693-2.717 0 .128-.026.282-.077.435-.18.898-.282 1.154-1.026 2.077l-.18.231a.46.46 0 0 0-.128.18c-.307.487-.205 1.05.257 1.615.051.077.077.128.128.205.026.026.051.077.077.103l.026.05c.025.052.05.078.102.155 0 0 .128.18.282.487.128.359.41 1.256.487 2.436.129 1.743 3.205 6.795 3.846 7.795.052.077.077.128.154.18 0 0 .282.256.436.768v.052c.077.102.077.23 0 .513zm10.616 0c-.154.667-.539 1.872-.693 2.308-.18.103-.564.257-.897.385-.23.077-.513.102-.846.102h-.129c-.461-.05-1.076-.18-1.282-.282-.23-.128-.256-.18-.256-.384 0-.36 0-1.077-.718-1.59a.354.354 0 0 0-.102-.077c-.154-.128-.385-.282-.795-.487-.975-.667-2.795-1.82-3.795-2.36h-.026a.584.584 0 0 0-.282-.076v-.026c-1.436-2.333-3.461-5.974-3.538-6.948-.103-1.641-.872-3-1.154-3.462.846-.256 1.795-.667 2.718-.897l.538-.077a.684.684 0 0 0 .36-.18c.435-.436 1.974-1.769 3.025-2.666l-.231 1.64c-.026.257.103.513.333.616a.63.63 0 0 0 .693-.128c.948-1 2.025-2.103 2.692-2.718 0 .128-.026.282-.077.436-.18.897-.282 1.154-1.026 2.077l-.18.23a.46.46 0 0 0-.127.18c-.308.487-.205 1.051.256 1.615.051.077.077.129.128.205a.194.194 0 0 1 .052.103l.025.051a.56.56 0 0 1 .077.129c.051.076.205.358.385.769.128.487.307 1.307.436 2.256.256 1.667 3.23 6.718 3.82 7.718a.456.456 0 0 0 .18.205s.282.257.436.77v.05c.05.103.05.232 0 .514zm1.64-.794v-.103.103zM10.051 42.513c-.128 0-.18.077-.23.333-.129.846-.436 1.23-1 1.487-.59.231-1.642.231-2.231.231-2.205 0-2.59-.282-2.641-1.718-.026-.436 0-2.923 0-3.667v-1.794c0-.077.025-.154.154-.154.384 0 2.743.025 3.359.102.846.103 1.05.36 1.128.667.102.282.102.513.102.718 0 .128.052.205.154.205.154 0 .205-.23.205-.41 0-.154.052-.949.103-1.385.051-.692.18-1.051.18-1.18 0-.127-.052-.179-.129-.179-.077 0-.18.128-.333.282-.231.231-.564.257-1.077.308-.513.051-3.436.051-3.692.051-.129 0-.129-.077-.129-.23v-5.821c0-.154.026-.23.129-.23.256 0 2.82.025 3.205.076 1.205.154 1.436.308 1.59.667.102.256.128.615.128.769 0 .18.05.282.18.282.102 0 .179-.128.204-.23.052-.257.103-1.206.128-1.41.052-.616.18-.847.18-1 0-.104-.026-.206-.103-.206-.102 0-.205.077-.307.102-.18.026-.59.103-1 .129-.513.025-5.154 0-5.282 0-.129 0-1.564-.052-2.564-.052-.257 0-.36.052-.36.18 0 .077.103.18.18.18.205 0 .59.025.744.05.743.103.846.462.897 1.18.051.667.051 1.282.051 4.616v3.769c0 2.077 0 3.743-.128 4.64-.102.642-.154 1.052-.59 1.129-.205.026-.487.103-.692.103-.128 0-.18.102-.18.18 0 .127.129.179.36.179.359 0 .846-.026 1.282-.052.487-.025.897-.025.948-.025.334 0 .898 0 1.847.05.897.027 2.205.078 3.846.078.846 0 1.077 0 1.23-.564.129-.462.308-1.923.308-2.077 0-.18-.026-.36-.154-.36zM45.436 48c-.077 0-.18.026-.333.077-1.539.564-3.231.82-4.334.82-1.102 0-4.461-.128-9.307-2.512l-4.539-2.257c1.462-.897 3.898-3.436 3.898-7.18 0-4.974-3.795-8.05-8.77-8.05-6.128 0-8.795 4.923-8.795 8.358 0 3.847 2.565 8.41 8.693 8.41 1.18 0 2.692-.256 3.513-.666l3.692 2c3.59 1.949 6.487 2.82 9.18 2.82a17.37 17.37 0 0 0 7.05-1.487c.129-.05.18-.128.18-.23 0 0-.051-.103-.128-.103zm-22.872-3.18c-4 0-7-3.179-7-8.102 0-4.692 2.667-6.974 6.385-6.974 3.513 0 6.666 2.743 6.666 7.846-.025 6.154-4.077 7.23-6.05 7.23z"/>
        <path d="M49.564 29.205c-.667 0-1.718.051-1.872.051-.128 0-1.41-.05-2.384-.05-.257 0-.36.05-.36.179 0 .077.078.18.18.18.205 0 .59.025.744.05.718.103.846.513.872 1.18.025.667.05 1.282.05 4.615v2.693c0 2.205-.23 3.948-1.256 5.205-.769.897-2.076 1.513-3.435 1.513-1.257 0-2.231-.18-3.308-1.154-.949-.846-1.641-2.154-1.641-5.231v-3c0-3.333 0-3.923.051-4.615.051-.718.18-1.077.77-1.18.281-.051.41-.051.563-.051.103 0 .206-.103.206-.18 0-.128-.129-.18-.385-.18-.667 0-2.051.052-2.23.052-.206 0-1.54-.051-2.54-.051-.256 0-.358.051-.358.18 0 .076.102.179.18.179.204 0 .589.025.743.051.743.103.846.513.897 1.18.052.666.052 1.282.052 4.615v3.154c0 3.128.846 4.615 1.948 5.615 1.564 1.462 3.872 1.513 4.616 1.513 1.307 0 3.025-.18 4.64-1.564 1.77-1.513 2.078-4.103 2.078-6.436v-2.282c0-3.333-.026-3.923.025-4.615.052-.718.18-1.052.795-1.18.282-.051.41-.051.564-.051.103 0 .18-.103.18-.18-.052-.154-.154-.205-.385-.205zM58.641 45.077a8.8 8.8 0 0 1-1-.103c-.667-.102-.744-.512-.82-1.128-.103-.872-.103-2.564-.103-4.64v-3.77c0-3.333 0-3.923.026-4.615.05-.77.18-1.052.769-1.18.256-.051.41-.051.564-.051.077 0 .18-.103.18-.18 0-.128-.103-.18-.36-.18-.692 0-2.128.052-2.23.052-.129 0-1.513-.051-2.257-.051-.256 0-.359.051-.359.18 0 .076.077.179.18.179.154 0 .436.025.692.077.487.102.667.436.692 1.154.052.666.052 1.282.052 4.615v3.77c0 2.076-.026 3.743-.129 4.64-.076.641-.153 1.026-.59 1.128a3.228 3.228 0 0 1-.692.103c-.128 0-.18.102-.18.18 0 .128.13.179.36.179.692 0 2.077-.077 2.205-.077.103 0 1.538.077 2.77.077.256 0 .358-.077.358-.18.026-.077 0-.18-.128-.18zM72.846 42.41c-.128 0-.205.128-.23.282-.078.436-.257.872-.54 1.205-.538.616-1.512.641-2.666.641-1.743 0-2.59-.153-2.948-.512-.41-.385-.462-1.667-.462-4.82v-3.847c0-3.333 0-3.923.026-4.615.05-.77.18-1.077.846-1.206.256-.025.59-.05.718-.05.077 0 .18-.078.18-.155 0-.128-.129-.18-.36-.18-.692 0-2.333.052-2.436.052-.128 0-1.512-.051-2.512-.051-.257 0-.36.051-.36.18 0 .076.103.179.18.179.205 0 .59.025.744.051.743.103.846.462.897 1.18.051.666.051 1.282.051 4.615v3.77c0 2.076 0 3.743-.128 4.64-.102.641-.154 1.026-.59 1.128a3.228 3.228 0 0 1-.692.103c-.128 0-.18.103-.18.18 0 .128.129.179.36.179.359 0 .82-.026 1.282-.051.436-.026.795-.026.897-.026.667 0 1.41.026 2.41.051 1.026.052 2.282.077 3.846.077 1.18 0 1.257-.077 1.41-.59.18-.64.334-1.923.334-2.153.077-.154.026-.257-.077-.257zM81.41 45.077c-.205 0-.692-.051-1-.103-.666-.102-.743-.512-.82-1.128-.103-.872-.103-2.564-.103-4.64v-3.77c0-3.333 0-3.923.026-4.615.051-.77.18-1.052.77-1.18.255-.051.41-.051.563-.051.077 0 .18-.103.18-.18 0-.128-.103-.18-.36-.18-.692 0-2.128.052-2.204.052-.129 0-1.513-.051-2.257-.051-.256 0-.359.051-.359.18 0 .076.077.179.18.179.153 0 .436.025.692.077.487.102.667.436.718 1.154.051.666.051 1.282.051 4.615v3.77c0 2.076-.025 3.743-.128 4.64-.077.641-.154 1.026-.59 1.128a3.228 3.228 0 0 1-.692.103c-.128 0-.18.102-.18.18 0 .128.129.179.36.179.692 0 2.076-.077 2.205-.077.102 0 1.538.077 2.769.077.256 0 .359-.077.359-.18 0-.077-.052-.18-.18-.18zM102.077 29.205c-.898 0-1.641.051-1.898.051-.256 0-1.307-.05-2.307-.05-.257 0-.436.025-.436.153 0 .077.026.205.18.205.179 0 .692.026 1.076.103.693.128.795.615.82 2l.232 10.743c-.693-.718-3.052-3.256-5.231-5.513a740.026 740.026 0 0 1-7-7.307c-.23-.231-.616-.667-.846-.667-.18 0-.308.23-.308 1.077v12.282c0 1.949-.077 2.513-.641 2.667a3.521 3.521 0 0 1-.897.128.175.175 0 0 0-.18.18c0 .153.128.179.359.179 1 0 1.949-.077 2.154-.077.205 0 1.077.077 2.333.077.257 0 .41-.051.41-.18a.175.175 0 0 0-.18-.18c-.204 0-.717-.025-1.102-.127-.615-.154-.794-.693-.846-2.436l-.256-10.103c.692.77 3.18 3.385 5.743 6.077 2.334 2.436 5.539 5.59 5.77 5.795 1.23 1.128 1.461 1.308 1.692 1.308.154 0 .18-.128.18-1.539l.05-12.564c0-1.282.052-1.718.77-1.872.256-.05.436-.05.538-.05.154 0 .257-.13.257-.206-.051-.128-.23-.154-.436-.154zM115.41 42.513c-.128 0-.18.077-.23.333-.129.846-.436 1.23-1 1.487-.59.231-1.642.231-2.206.231-2.205 0-2.59-.282-2.64-1.718-.026-.436 0-2.923 0-3.667v-1.794c0-.077.025-.154.153-.154.385 0 2.744.025 3.36.102.845.103 1.05.36 1.127.667.103.282.103.513.103.718 0 .128.051.205.154.205.154 0 .205-.23.205-.41 0-.154.051-.949.102-1.385.052-.692.18-1.051.18-1.18 0-.127-.051-.179-.128-.179-.077 0-.18.128-.334.282-.23.231-.564.257-1.077.308-.512.051-3.435.051-3.692.051-.128 0-.128-.077-.128-.23v-5.821c0-.154.026-.23.128-.23.257 0 2.82.025 3.205.076 1.205.154 1.436.308 1.59.667.103.256.128.615.128.769 0 .18.052.282.18.282.102 0 .18-.128.205-.23.051-.257.102-1.206.128-1.41.051-.616.18-.847.18-1 0-.104-.026-.206-.103-.206-.103 0-.205.077-.308.102-.18.026-.59.103-1 .129-.513.025-5.154 0-5.282 0-.128 0-1.564-.052-2.564-.052-.256 0-.359.052-.359.18 0 .077.103.18.18.18.205 0 .59.025.743.05.744.103.846.462.898 1.18.051.667.051 1.282.051 4.616v3.769c0 2.077 0 3.743-.128 4.64-.103.642-.154 1.052-.59 1.129-.205.026-.487.103-.692.103-.128 0-.18.102-.18.18 0 .127.128.179.36.179.358 0 .845-.026 1.281-.052.487-.025.898-.025.949-.025.333 0 .897 0 1.846.05.898.027 2.205.078 3.872.078.846 0 1.077 0 1.23-.564.129-.462.308-1.923.308-2.077-.05-.18-.077-.36-.205-.36z"/>
    </g>
</svg>
